<svg version="1.1" id="book-ico" xmlns="http://www.w3.org/2000/svg" xmlns:xlink="http://www.w3.org/1999/xlink" x="0px" y="0px"
   width="100px" height="100px" viewBox="0 0 100 100" enable-background="new 0 0 100 100" xml:space="preserve">
<g>
  <path d="M9.36,82.137c-0.4,0-0.8,0-1.2,0c-0.64-0.641-1.28-1.279-1.92-1.92
    c0-19.52,0-39.04,0-58.56c0.53-0.57,0.957-1.338,1.607-1.678c4.821-2.513,9.82-4.612,15.12-5.888
    c2.315-0.557,4.687-0.884,7.033-1.314c1.68,0,3.36,0,5.04,0c0.346,0.078,0.688,0.186,1.039,0.229
    c4.385,0.538,8.348,2.102,11.835,4.833c0.374,0.292,0.745,0.588,1.146,0.904c2.873-2.492,6.088-4.224,9.721-5.121
    c1.43-0.353,2.893-0.568,4.34-0.845c1.68,0,3.359,0,5.039,0c0.701,0.117,1.4,0.25,2.104,0.35c6.916,0.976,13.33,3.457,19.512,6.59
    c0.83,0.421,1.436,1.283,2.145,1.94c0,19.52,0,39.041,0,58.56c-0.639,0.641-1.279,1.279-1.92,1.92c-0.4,0-0.799,0-1.199,0
    c-2.777-1.396-5.508-2.898-8.342-4.17c-4.979-2.23-10.113-3.963-15.65-4.092c-5.688-0.133-10.264,1.934-13.486,6.758
    c-0.4,0.6-1.088,1.008-1.642,1.504c-0.48,0-0.96,0-1.44,0c-0.615-0.656-1.315-1.25-1.832-1.977
    c-2.386-3.354-5.518-5.625-9.641-6.002c-2.628-0.24-5.361-0.193-7.958,0.248C21.807,75.598,15.513,78.723,9.36,82.137z
     M49.481,74.813c0.298-0.178,0.413-0.219,0.492-0.297c4.935-4.809,10.94-6.16,17.581-5.436c6.412,0.699,12.311,3.008,18.063,5.779
    c0.383,0.186,0.773,0.359,1.309,0.609c0-0.65,0-1.125,0-1.598c0-11.119,0-22.238,0-33.357c0-5.24,0.018-10.479-0.029-15.719
    c-0.004-0.443-0.318-1.115-0.68-1.29c-5.672-2.753-11.531-4.975-17.863-5.6c-6.613-0.653-12.559,0.819-17.291,5.825
    c-0.191,0.202-1.625,1.661-1.593,3.695c0.017,15.799,0.012,30.22,0.012,46.019C49.481,73.838,49.481,74.23,49.481,74.813z
     M48.541,74.68c0-0.598,0-1.072,0-1.547c0-15.23-0.009-30.461,0.015-45.691c0.002-1.478-0.226-2.531-1.448-3.749
    c-4.952-4.931-10.871-6.461-17.57-5.762c-6.079,0.635-11.7,2.784-17.206,5.311c-0.873,0.4-1.12,0.879-1.119,1.806
    c0.029,16.35,0.021,32.7,0.024,49.049c0,0.412,0.041,0.822,0.067,1.332c0.365-0.162,0.583-0.25,0.793-0.352
    c5.363-2.633,10.873-4.852,16.815-5.783c7.18-1.123,13.787-0.07,19.231,5.229C48.193,74.57,48.279,74.578,48.541,74.68z"/>
</g>
</svg>