<svg version="1.1" xmlns="http://www.w3.org/2000/svg" viewBox="0 0 633 512">
    <defs>
        <symbol id="icon-book" viewBox="0 0 633 512">
            <title>book</title>
            <path d="M87.171 456c-10.037-1.453-14.772-4.387-17.992-11.534 0-116.264 0-220.994 0-337.258 3.059-3.284 5.516-7.72 9.266-9.673 27.803-14.487 56.634-26.601 87.194-33.953 13.355-3.214 27.034-5.099 40.56-7.584 9.692 0 19.377 0 29.064 0 1.997 0.447 3.97 1.075 5.992 1.325 25.29 3.090 48.147 12.122 68.26 27.863 2.155 1.688 4.294 3.391 5.831 4.603 9.442-6.1 17.942-12.598 27.317-17.368 9.379-4.77 19.464-8.367 29.55-11.445 8.087-2.462 16.642-3.377 24.99-4.977 9.688 0 19.377 0 29.064 0 4.043 0.678 8.068 1.442 12.134 2.016 39.877 5.63 76.873 19.941 112.518 38.008 4.786 2.424 8.285 7.391 12.372 11.186 0 112.573 0 337.258 0 337.258s-6.028 11.534-17.997 11.534c-16.010-8.060-31.763-16.721-48.108-24.048-28.707-12.863-58.315-22.846-90.252-23.603-32.794-0.765-59.188 11.151-77.776 38.968-2.313 3.461-6.272 5.815-9.472 8.683-2.767 0-5.537 0-8.305 0-3.682-3.97-7.81-7.613-10.96-11.965-13.605-18.784-31.26-31.744-54.528-33.904-15.382-1.423-31.376-1.276-46.566 1.296-40.383 6.841-76.682 24.878-112.162 44.574zM318.551 413.596c1.649-0.795 2.144-0.903 2.449-1.197 28.781-28.176 63.803-36.005 102.63-31.597 36.721 4.172 70.508 17.418 103.455 33.3 2.188 1.050 4.413 2.027 6.742 3.091 0.337-1.247 0.563-1.685 0.563-2.13 0.043-97.109 0.103-194.212-0.068-291.32-0.005-2.052-2.125-5.085-4.043-6.008-32.342-15.559-65.673-28.236-101.688-32.019-38.655-4.059-73.363 4.305-101.043 33.57-1.104 1.167-11.042 8.133-9.036 19.189 0.060 91.106 0.043 176.456 0.043 267.562-0.005 2.238-0.005 4.471-0.005 7.56zM313.128 412.988c0-3.461 0-6.188 0-8.916 0-87.833-0.060-175.668 0.084-263.502 0.014-8.52-1.301-14.596-8.353-21.619-28.56-28.433-62.688-37.262-101.323-33.227-35.059 3.662-67.474 16.054-99.229 30.631-5.031 2.308-6.46 5.070-6.448 10.413 0.165 94.287 0.117 188.578 0.138 282.864 0 2.37 0.237 4.746 0.388 7.676 2.106-0.928 3.365-1.435 4.579-2.022 30.93-15.17 62.698-27.981 96.971-33.344 41.41-6.485 79.514-0.409 110.911 30.149 0.275 0.269 0.776 0.318 2.288 0.897z"></path>
        </symbol>
        <symbol id="icon-book-fav" viewBox="0 0 696 512">
            <title>book-fav</title>
            <path d="M668.327 316.882c0 14.356 0 28.718 0 43.081-0.304 1.144-0.737 2.277-0.895 3.446-6.734 47.306-33.96 81.022-71.769 107.482-19.117 13.376-40.792 20.529-63.745 24.036-13.881 0-27.762 0-41.644 0-0.67-0.243-1.321-0.615-2.015-0.718-47.342-7.623-83.774-32.055-110.161-71.762-2.558-3.848-5.212-4.413-8.992-2.526-2.99 1.498-6.082 2.813-8.998 4.438-12.609 7.050-21.942 17.461-30.271 29.047-8.031 11.19-19.617 11.092-27.848 0.14-1.869-2.478-3.629-5.047-5.528-7.5-13.486-17.431-30.983-28.14-52.876-31.421-18.679-2.795-37.18-1.577-55.549 2.496-36.529 8.11-70.124 23.599-102.965 41.005-11.732 6.247-17.826 4.639-25.57-6.265 0-118.222 0-236.444 0-354.666 3.142-4.725 7.629-7.647 12.645-10.125 38.867-19.233 79.172-34.022 122.332-40.134 14.837 0 29.674 0 44.511 0 27.075 4.407 52.037 13.742 73.321 31.567 3.13 2.624 5.51 1.486 8.183-0.7 6.289-5.144 13.029-9.638 20.11-13.644 16.213-9.181 33.936-13.753 52.031-17.224 14.837 0 29.675 0 44.517 0 42.118 5.87 81.34 20.493 119.616 38.508 12.152 5.716 17.108 13.558 16.792 26.722-0.585 23.897-0.054 47.817-0.231 71.731-0.037 5.619 1.589 9.194 6.977 11.855 27.963 13.808 49.424 34.91 66.283 60.852 11.927 18.368 18.077 38.898 21.741 60.279zM310.63 414.355c1.894-4.11 1.243-7.245 1.243-10.283 0.043-88.067-0.255-176.127 0.346-264.188 0.091-13.199-3.202-22.228-13.187-31.318-26.411-24.061-57.284-32.742-91.909-30.49-38.838 2.526-74.642 15.842-109.632 31.873-5.205 2.386-7.495 5.394-7.483 11.415 0.177 96.676 0.115 193.357 0.134 290.033 0 8.079 0.268 8.286 7.403 4.925 23.19-10.952 46.794-20.822 71.702-27.178 27.081-6.916 54.38-10.898 82.326-5.364 22.398 4.426 41.869 14.496 59.056 30.575zM386.861 337.832c-0.243 69.961 54.295 123.744 124.147 125.57 61.187 1.601 125.79-56.018 126.161-123.276 0.36-65.278-55.099-127.823-124.633-127.659-70.74 0.171-125.424 54.374-125.673 125.364zM321.388 414.202c10.368-9.394 21.528-17.546 34.466-22.678 5.065-2.003 5.442-4.736 4.159-9.425-5.17-18.825-7.214-37.923-5.322-57.492 5.814-60.097 36.152-103.324 90.008-129.735 27.020-13.248 56.036-17.174 85.99-13.595 10.832 1.291 10.849 1.23 10.855-9.357 0.006-16.268-0.311-32.548 0.14-48.803 0.194-6.941-2.027-10.826-8.475-13.747-34.625-15.659-69.978-28.724-108.305-31.275-32.974-2.192-63.214 5.12-88.541 27.695-3.392 3.026-6.156 6.959-9.949 9.266-5.796 3.531-6.74 8.268-6.733 14.466 0.146 92.109 0.098 184.219 0.146 276.329 0.006 2.514-0.822 5.23 1.558 8.353z"></path>
            <path d="M466.909 378.007c0.646-4.87 1.358-11.538 2.472-18.125 1.084-6.368 0.238-11.604-5.485-15.762-4.426-3.215-8.14-7.385-12.219-11.075-4.512-4.079-6.161-9.114-4.572-14.922 1.553-5.693 5.961-8.462 11.428-9.668 5.132-1.138 10.271-2.636 15.471-2.978 8.67-0.578 13.87-4.944 17.351-12.596 2.368-5.199 5.418-10.137 8.603-14.899 6.514-9.754 17.663-9.637 24.019 0.286 3.604 5.632 6.856 11.519 9.869 17.486 2.386 4.731 5.918 7.080 11.081 7.909 6.837 1.096 13.625 2.558 20.371 4.159 13.4 3.172 16.785 14.545 7.5 24.822-0.481 0.536-0.998 1.035-1.491 1.553-17.839 18.454-17.918 18.46-15.58 43.951 0.626 6.783 0.371 13.108-5.827 17.303-6.228 4.213-12.701 2.721-18.106-1.327-14.235-10.654-27.757-10.904-43.159-1.351-11.659 7.227-21.997 0.146-21.724-14.764z"></path>
        </symbol>
        <symbol id="icon-status" viewBox="0 0 665 512">
            <title>status</title>
            <path d="M602.498 285.289c0 57.858-0.060 115.719 0.125 173.577 0.011 4.262-0.863 5.119-5.119 5.113-176.673-0.131-353.344-0.131-530.016 0-4.262 0.012-5.136-0.851-5.125-5.113 0.178-57.858 0.126-115.719 0.126-173.577 6.036-13.857 16.536-19.935 31.679-19.293 13.291 0.56 26.626 0.125 39.942 0.113 10.846-0.012 10.869-0.024 10.875-10.56 0.018-27.108-0.095-54.216 0.060-81.324 0.107-18.244 11.268-29.358 29.346-29.513 12.125-0.107 24.263-0.292 36.376 0.071 6.512 0.191 8.84-2.167 8.732-8.684-0.298-17.828 0.345-35.68-0.226-53.496-0.5-15.548 4.53-27.411 18.935-34.46 66.193 0 132.385 0 198.577 0 13.817 6.096 19.727 16.596 19.233 31.744-0.601 18.536-0.161 37.103-0.125 55.662 0.012 8.84 0.291 9.089 9.392 9.126 11.179 0.042 22.358 0.042 33.538 0.071 7.315 0.018 13.351 2.982 18.436 8.083 6.519 6.536 8.268 14.75 8.268 23.566 0.006 27.119 0.125 54.233-0.066 81.353-0.042 6.053 1.959 8.607 8.261 8.447 12.357-0.322 24.751 0.351 37.097-0.197 15.131-0.666 25.649 5.411 31.679 19.286zM332.497 433.395c76.425 0 152.844 0 229.27-0.006 10.232 0 10.256-0.036 10.263-10.429 0.011-38.805 0.018-77.61-0.006-116.421-0.006-9.078-0.25-9.334-9.191-9.34-153.558-0.012-307.117-0.012-460.675 0-8.929 0.006-9.178 0.268-9.184 9.352-0.023 38.805-0.017 77.61-0.006 116.421 0 10.387 0.029 10.418 10.269 10.418 76.419 0.006 152.838 0.006 229.263 0.006zM334.633 287.789c49.995 0 99.991-0.101 149.993 0.113 6.833 0.029 9.155-2.214 9.096-9.066-0.268-31.424-0.274-62.853 0-94.277 0.065-6.982-2.476-8.941-9.209-8.929-99.514 0.161-199.036 0.161-298.55 0-6.81-0.012-9.238 2.173-9.178 9.036 0.244 31.185 0.077 62.377 0.119 93.562 0.012 9.066 0.536 9.555 9.881 9.555 49.281 0.017 98.563 0.006 147.85 0.006zM338.288 78.617c-25.948 0-51.888 0.172-77.83-0.12-6.69-0.077-9.369 1.881-9.274 8.892 0.315 23.323 0.328 46.65-0.006 69.973-0.101 7.101 2.72 8.875 9.321 8.846 51.645-0.191 103.296-0.095 154.945-0.119 9.107 0 9.387-0.28 9.399-9.131 0.029-23.084 0.029-46.174 0-69.264-0.012-8.787-0.315-9.066-9.44-9.078-25.709-0.017-51.412 0-77.116 0z"></path>
        </symbol>
        <symbol id="icon-cart" viewBox="0 0 658 512">
            <title>cart</title>
            <path d="M618.611 51.871c-4.010 6.209-10.006 8.312-17.059 8.346-13.547 0.062-27.093 0.429-40.625 0.131-6.459-0.145-9.784 1.992-12.246 8.249-32.389 82.356-59.648 166.408-84.030 251.44-3.195 11.133-6.473 22.183-8.346 33.704-2.904 17.868-13.795 29.106-31.346 33.551-4.654 1.175-6.209 1.888-2.69 6.735 24.272 33.344 12.475 71.57-26.366 86.312-1.024 0.394-2.005 0.913-3.008 1.37-8.298 0-16.589 0-24.894 0-1.293-0.484-2.565-1.010-3.866-1.466-36.407-12.786-49.456-52.152-27.929-84.19 1.182-1.749 3.167-3.167 2.856-6.016-34.962 0-69.896 0-105.764 0 1.792 2.904 2.959 4.757 4.079 6.632 18.365 30.806 0.899 72.288-34.098 80.282-22.605 5.159-41.794-1.252-55.915-19.791-14.487-19.030-15.655-39.671-4.121-60.589 3.167-5.739 3.548-8.098-3.706-10.13-16.056-4.502-25.544-15.745-29.195-31.899-1.694-7.517-2.586-15.13-5.442-22.459-11.644-29.851-22.66-59.959-34.285-89.825-9.19-23.67-17.343-47.762-27.888-70.899 0-7.191 0-14.383 0-21.575 7.060-24.106 24.071-34.934 48.26-34.962 123.522-0.145 247.043-0.103 370.564 0 10.905 0.007 21.61 2.019 30.64 8.636 4.799 3.513 6.534 2.697 8.491-2.738 8.796-24.43 18.076-48.688 26.94-73.091 2.047-5.629 4.633-10.587 9.653-14.017 25.178 0 50.348 0.166 75.511-0.145 4.965-0.062 6.548 0.968 5.913 5.968-0.505 4.080-0.090 8.284-0.090 12.434zM376.671 200.75c0 16.851 0.235 33.71-0.118 50.555-0.138 6.659 1.805 9.328 8.873 9.19 20.164-0.38 40.335-0.401 60.499 0.014 6.86 0.145 9.605-2.462 11.417-8.851 7.772-27.349 15.911-54.6 24.243-81.783 5.346-17.453-1.438-27.584-19.914-27.805-25.689-0.311-51.385 0.055-77.074-0.207-6.293-0.062-8.104 2.406-8.007 8.339 0.263 16.845 0.089 33.697 0.083 50.548zM275.582 200.391c0 17.136 0.221 34.278-0.118 51.406-0.124 6.41 1.861 8.761 8.485 8.685 25.696-0.298 51.406-0.298 77.102 0 6.707 0.076 8.498-2.524 8.457-8.796-0.2-33.718-0.214-67.435 0.007-101.151 0.041-6.397-1.998-8.754-8.575-8.685-25.703 0.291-51.406 0.304-77.108-0.007-6.762-0.083-8.478 2.552-8.361 8.81 0.312 16.576 0.111 33.157 0.111 49.739zM176.816 201.213c0-17.121-0.007-34.243 0.007-51.371 0.007-4.087-0.042-7.891-5.802-7.863-28.172 0.118-56.35-0.394-84.5 0.422-13.892 0.401-20.51 11.541-15.628 24.603 10.829 28.959 22.177 57.732 33.102 86.659 1.833 4.841 4.467 6.874 9.763 6.797 18.227-0.256 36.456-0.325 54.683 0.021 6.652 0.131 8.602-2.386 8.492-8.733-0.319-16.838-0.118-33.69-0.118-50.534zM184.097 200.363c0 17.398 0.131 34.796-0.076 52.186-0.062 5.559 1.728 7.946 7.613 7.891 22.916-0.221 45.839-0.242 68.755 0.014 6.272 0.069 8.111-2.476 8.084-8.375-0.152-33.966-0.159-67.926 0-101.892 0.027-5.94-1.923-8.388-8.139-8.326-22.639 0.249-45.286 0.291-67.926-0.028-6.742-0.096-8.519 2.579-8.409 8.816 0.284 16.576 0.089 33.143 0.096 49.712zM322.334 361.909c13 0 26-0.207 38.993 0.096 6.182 0.145 8.214-2.289 8.166-8.305-0.2-26-0.2-52-0.007-77.994 0.041-6.127-2.386-8.298-8.361-8.263-25.724 0.166-51.447 0.159-77.171 0-5.808-0.034-8.533 1.7-8.478 8.056 0.235 26.276 0.214 52.553 0.007 78.823-0.048 5.851 2.226 7.772 7.842 7.668 13.007-0.249 26.007-0.083 39.007-0.083zM184.097 314.735c0 12.986 0.2 25.979-0.089 38.959-0.131 6.002 1.943 8.382 8.125 8.312 22.654-0.235 45.314-0.214 67.967-0.007 5.988 0.055 8.423-2.026 8.375-8.166-0.187-25.972-0.166-51.945-0.014-77.917 0.034-5.92-2.109-8.512-8.221-8.471-22.654 0.166-45.314 0.166-67.967-0.014-6.050-0.048-8.375 2.296-8.249 8.346 0.256 12.986 0.076 25.972 0.076 38.959zM376.692 314.909c0 13.242 0.138 26.484-0.069 39.726-0.083 5.332 2.019 7.454 7.33 7.33 9.653-0.235 19.32 0.159 28.959-0.2 11.41-0.436 16.658-5.449 17.564-16.727 0.422-5.29 1.452-10.331 3.008-15.358 5.546-17.916 10.808-35.916 16.534-53.771 1.916-5.995 1.127-8.595-5.858-8.498-19.59 0.27-39.18 0.305-58.762-0.021-7.108-0.118-9.003 2.911-8.817 9.446 0.339 12.682 0.096 25.385 0.111 38.073zM176.802 314.916c0-13.249-0.103-26.498 0.055-39.748 0.055-5.096-1.708-7.71-7.143-7.675-17.945 0.111-35.888 0.076-53.833 0.007-4.722-0.021-5.858 2.053-4.266 6.223 2.752 7.226 5.511 14.445 8.18 21.692 5.339 14.494 12.088 28.67 15.579 43.591 4.889 20.869 5.961 22.909 27.487 22.916 1.929 0 3.88-0.159 5.794 0.021 6.043 0.58 8.388-1.964 8.243-8.104-0.298-12.966-0.083-25.945-0.096-38.924zM189.822 397.231c-15.281 0.027-26.892 11.32-27.065 26.318-0.173 15.206 12.613 27.985 27.839 27.818 13.837-0.145 27.231-13.284 27.465-26.94 0.256-15.103-12.329-27.224-28.24-27.197zM379.022 455.039c15.786 0.401 28.123-10.766 28.573-25.841 0.442-15.323-11.963-28.137-27.39-28.282-14.708-0.138-26.414 11.099-26.926 25.834-0.553 16.125 10.158 27.887 25.745 28.289z"></path>
        </symbol>
    </defs>
</svg>
