<svg version="1.1" id="Layer_2" xmlns="http://www.w3.org/2000/svg" xmlns:xlink="http://www.w3.org/1999/xlink"
   width="400px" height="298px" viewBox="0 0 400 298" enable-background="new 0 0 400 298">
<path d="M150.976,53.092c6.318,14.894,16.021,29.564,30.352,41.299
  c4.512,3.61,9.365,6.881,14.782,9.928c1.693,0.902,3.498,1.805,5.191,2.596c6.994,3.385,14.104,5.642,20.985,7.222
  c10.949,2.369,21.102,2.932,29,2.708c7.898-0.227,13.428-1.015,15.119-1.242c2.937-0.451-4.627-0.678-15.119-2.368
  c-5.869-0.903-12.64-2.259-18.958-4.4c-3.271-1.129-6.656-2.71-10.042-4.627c-9.025-4.852-18.278-11.959-26.176-19.407
  c-5.754-5.303-10.945-10.833-14.782-15.684l-0.339-0.451c-15.429-17.237-22.828-45.855-27.114-56.348l-17.478,8.082l8.598,17.348
  c0.676,1.917,1.581,3.949,2.481,6.32C148.493,47.111,149.62,50.157,150.976,53.092z M52.469,122.711
  c9.14,12.977,21.666,24.6,38.704,32.723c0.563,0.339,1.127,0.563,1.805,0.791c9.816,4.512,19.746,6.883,28.773,8.125
  c12.299,1.578,22.905,1.015,29.225,0.451c2.708-0.339,4.513-0.565,5.415-0.678c1.805-0.227-0.677-0.451-5.415-1.015
  c-6.883-0.791-18.279-2.256-28.661-5.754c-0.225-0.115-0.339-0.227-0.563-0.227c-9.252-3.274-19.521-10.042-28.773-17.714
  c-8.913-7.335-16.926-15.46-22.229-22.229c-7.559-9.591-13.879-23.358-18.279-34.754c-4.4-11.057-6.881-19.858-6.881-19.858
  l-17.604,8.011c-0.676,0.339,0.566-0.451,9.254,22.004C40.733,102.74,45.7,113.12,52.469,122.711z M52.469,161.978
  c3.612,2.371,7.562,4.513,11.735,6.544c9.703,4.627,19.633,7.223,28.773,8.576c11.735,1.805,22.002,1.466,28.773,0.903
  c3.835-0.227,6.544-0.678,7.671-0.79c2.032-0.339-1.466-0.566-7.671-1.242c-6.884-0.902-17.153-2.48-26.517-5.642
  c-0.791-0.225-1.466-0.563-2.256-0.788c-13.765-5.418-29.337-17.943-40.509-29.564c-3.384-3.386-6.318-6.659-8.689-9.703
  C28.773,111.202,18.506,75.66,18.506,75.66L1.015,83.67c-0.676,0.227,0.566-0.451,9.255,22.004
  C17.377,126.208,30.127,147.423,52.469,161.978z M196.109,69.339c6.996,8.238,15.57,15.797,26.176,21.89
  c2.259,1.356,4.627,2.596,6.996,3.725c7.45,3.498,14.894,5.866,22.004,7.334c10.382,2.145,20.085,2.593,27.645,2.369
  c7.898-0.224,13.538-1.127,15.233-1.354c2.822-0.339-4.737-0.451-15.233-2.144c-5.754-0.902-12.296-2.256-18.504-4.401
  c-2.932-1.017-6.093-2.369-9.14-3.949c-10.042-5.303-20.424-13.541-29-21.666c-5.301-5.076-9.928-10.04-13.426-14.44
  c-4.176-5.417-7.898-12.074-11.284-18.958L180.645,0L162.2,8.464l15.403,29.282c1.129,2.822,2.371,5.643,3.725,8.462
  C185.165,54.221,190.017,62.005,196.109,69.339z M388.38,108.156c-2.708-1.241-5.415-2.369-8.123-3.386
  c-11.732-4.4-23.131-6.093-32.496-6.657c-12.187-0.79-21.212,0.451-23.47,0.791c-3.726,0.451,9.024,1.127,23.47,4.627
  c3.156,0.788,6.433,1.69,9.589,2.82c7.335,2.483,15.233,7.223,22.907,12.75c7.335,5.53,14.331,11.848,20.195,17.829v-22.005
  C396.731,112.444,392.782,110.188,388.38,108.156z M42.314,193.798C28.21,189.059,11.735,176.082,0,164.01v21.663
  c3.498,2.256,7.223,4.4,11.284,6.32c14.443,6.881,29.225,9.252,41.185,9.816c12.413,0.563,21.666-0.903,23.922-1.242
  c3.61-0.451-9.479-0.675-23.922-3.949C49.085,195.828,45.7,194.925,42.314,193.798z M68.266,182.402
  c-5.076-1.805-10.494-4.515-15.797-8.013c-13.992-8.913-27.757-22.114-35.767-32.157C10.042,133.656,4.289,121.808,0,111.315v38.589
  c8.916,12.074,20.987,22.907,37.123,30.579c5.191,2.483,10.27,4.288,15.346,5.756c16.023,4.513,31.03,4.513,40.509,3.949
  c4.74-0.339,8.125-0.902,9.364-1.017c2.371-0.337-2.144-0.563-9.364-1.466C86.094,186.803,76.842,185.222,68.266,182.402z
   M92.978,69.228c5.642,15.685,14.667,31.481,28.773,44.458c6.881,6.317,15.006,12.072,24.485,16.699
  c1.578,0.791,3.159,1.466,4.739,2.144c10.267,4.288,20.761,6.544,30.352,7.671c5.303,0.566,10.381,0.791,14.782,0.791
  c9.365,0,16.133-0.902,17.938-1.242c3.046-0.676-6.206-1.127-17.938-3.046c-4.739-0.788-9.93-1.805-14.782-3.271
  c-1.354-0.339-2.708-0.791-3.949-1.242c-8.462-2.822-17.829-8.688-26.403-15.458c-10.042-7.898-19.182-17.152-25.163-24.6
  c-1.354-1.805-2.708-3.722-4.062-5.754c-12.074-18.617-20.197-45.81-20.987-48.632h-0.678l-7.108,3.271l-9.93,4.516
  c-0.564,0.339,0.678-0.452,9.252,22.002C92.526,68.098,92.75,68.664,92.978,69.228z M121.751,57.719
  c5.754,16.023,14.779,32.834,29.225,46.148c6.542,6.208,14.216,11.511,23.244,15.797c2.368,1.129,4.74,2.144,7.108,3.047
  c4.964,1.807,9.93,3.159,14.782,4.176c9.591,1.917,18.617,2.369,26.176,2.256c9.479-0.112,16.36-1.354,18.17-1.581
  c3.157-0.451-6.208-0.9-18.17-3.159c-5.301-1.015-11.055-2.369-16.473-4.174c-3.047-1.017-6.318-2.595-9.704-4.4
  c-4.852-2.595-9.93-5.981-14.782-9.706c-10.721-8.238-20.648-18.053-26.854-26.063c-1.241-1.469-2.371-3.162-3.498-4.852
  c-7.786-11.623-13.992-26.856-17.716-37.462l-3.973-14.061l-18.053,8.352c1.354,3.046,6.117,14.171,9.728,23.537
  C121.186,56.25,121.524,57.041,121.751,57.719z M92.978,125.306c7.22,6.996,15.909,13.202,26.29,18.167
  c0.791,0.339,1.693,0.791,2.483,1.127c10.042,4.4,20.085,6.659,29.225,7.901c13.538,1.578,24.822,0.676,30.352,0
  c1.466-0.115,2.483-0.339,3.159-0.339c1.468-0.227,0.112-0.452-3.159-0.791c-6.206-0.678-18.843-2.032-30.352-5.867l-0.678-0.227
  c-9.14-3.046-19.295-9.703-28.547-17.265c-9.14-7.444-17.49-15.909-22.907-22.792c-2.029-2.708-4.061-5.642-5.866-8.687
  C81.242,77.014,73.683,50.609,73.683,50.609l-17.602,8.013c-0.678,0.225,0.563-0.566,9.252,22.002
  C70.748,96.196,79.325,112.105,92.978,125.306z M222.286,262.854c-5.53-13.992-13.877-28.212-26.176-39.945
  c-4.4-4.174-9.254-8.123-14.782-11.621c-3.498-2.256-7.108-4.288-10.945-6.093c-6.544-3.047-13.089-5.303-19.407-6.77
  c-10.947-2.598-21.214-3.273-29.225-3.161c-8.689,0.112-14.782,1.018-16.587,1.242c-3.046,0.451,5.415,0.678,16.587,2.595
  c5.527,0.903,11.621,2.256,17.49,4.289c3.837,1.241,7.671,3.159,11.735,5.415c10.719,6.208,21.776,15.345,30.352,24.032
  c3.61,3.725,6.884,7.335,9.479,10.611c1.805,2.368,3.61,5.076,5.303,7.898c11.96,19.407,19.744,46.603,19.744,46.603l6.433-2.937
  l11.174-5.076c0.563-0.224-0.678,0.563-9.254-21.89C223.527,266.349,222.963,264.659,222.286,262.854z M380.257,173.94
  c-7.449-13.316-17.94-25.842-32.496-35.433c-3.834-2.481-7.898-4.852-12.301-6.881c-9.703-4.627-19.632-7.223-28.771-8.576
  c-11.169-1.693-20.987-1.467-27.758-1.015c-4.398,0.339-7.45,0.791-8.687,0.902c-2.144,0.339,1.915,0.676,8.687,1.581
  c6.881,1.015,16.589,2.593,25.5,5.64c0.793,0.339,1.467,0.565,2.259,0.902c13.992,5.418,29.788,18.056,41.072,29.676
  c3.047,3.159,5.864,6.32,8.123,9.14c12.411,15.797,21.551,42.877,24.373,51.681c0.563,1.919,0.902,2.932,0.902,2.932l17.487-8.01
  c0.679-0.227-0.563,0.563-9.25-22.002C387.028,187.593,383.981,180.709,380.257,173.94z M306.688,174.84
  c-7.22-6.994-15.911-13.202-26.292-18.165c-0.449-0.225-1.012-0.451-1.466-0.678c-9.25-4.173-18.733-6.996-27.645-8.35
  c-0.788-0.112-1.466-0.224-2.254-0.337c-10.496-1.356-19.975-1.129-26.746-0.565c-5.301,0.451-8.911,1.017-10.267,1.129
  c-2.144,0.339,2.593,0.564,10.267,1.466c7.673,0.902,18.17,2.483,26.971,5.53c0.673,0.225,1.352,0.451,2.029,0.676
  c9.025,3.498,18.729,10.042,27.645,17.377c8.8,7.335,16.589,15.346,21.89,22.002c2.034,2.71,4.063,5.642,5.868,8.689
  c11.733,19.519,19.292,45.926,19.292,45.926l17.602-8.013c0.679-0.225-0.563,0.563-9.249-22.004
  C328.918,203.953,320.227,188.044,306.688,174.84z M380.257,130.385c-5.305-3.949-11.169-7.674-17.716-10.721
  c-4.962-2.368-9.929-4.173-14.78-5.527c-16.25-4.74-31.483-4.74-41.072-4.176c-4.741,0.339-8.123,0.902-9.364,1.015
  c-2.373,0.339,2.144,0.566,9.364,1.469c6.881,0.902,16.136,2.48,24.713,5.303c5.3,1.805,10.83,4.739,16.359,8.35
  c12.297,7.898,24.483,19.182,32.496,28.549c0.902,1.127,1.805,2.256,2.708,3.271c7.109,9.025,13.089,21.89,17.487,32.723v-39.267
  C395.041,143.698,388.271,136.59,380.257,130.385z M347.761,178.226c-9.255-13.313-21.89-25.273-39.268-33.513
  c-0.563-0.337-1.126-0.563-1.805-0.788c-9.254-4.176-18.843-6.544-27.758-8.01c-10.831-1.581-20.649-1.693-27.645-1.356
  c-5.53,0.339-9.254,0.79-10.267,1.129c-1.695,0.451,2.932,0.678,10.267,1.692c7.335,0.903,17.263,2.483,26.063,5.528
  c0.564,0.114,1.017,0.338,1.581,0.454c9.025,3.495,18.843,9.928,27.758,17.375c8.916,7.335,16.924,15.46,22.229,22.229
  c7.783,9.93,14.331,24.485,18.843,35.994c4.063,10.497,6.317,18.619,6.317,18.619l17.602-8.008
  c0.679-0.344-0.563,0.449-9.249-22.007C358.931,197.635,354.193,187.593,347.761,178.226z M306.688,231.031
  c-5.529-15.343-14.331-30.576-27.758-43.326c-7.106-6.771-15.573-12.865-25.5-17.94c-0.792-0.339-1.466-0.678-2.144-1.015
  c-9.928-4.739-19.97-7.223-29-8.577c-10.606-1.466-19.858-1.129-26.176-0.451c-3.837,0.451-6.659,1.015-7.786,1.354
  c-2.368,0.79,1.354,1.015,7.786,1.692c6.996,0.791,16.926,2.032,26.176,5.079v0.113c9.364,3.159,19.636,9.815,29,17.489
  c9.025,7.447,17.148,15.796,22.568,22.566c1.69,2.256,3.386,4.739,5.076,7.335c12.187,19.636,20.084,47.275,20.084,47.275
  l7.674-3.495l9.929-4.513c0.563-0.339-0.679,0.454-9.25-22C307.143,232.048,306.913,231.485,306.688,231.031z M251.286,253.375
  c-5.754-15.572-14.894-31.369-29-44.231c-6.767-6.094-14.78-11.509-23.92-15.909c-0.678-0.339-1.466-0.678-2.256-1.017
  c-4.966-2.257-9.93-3.949-14.782-5.19c-11.284-2.933-21.89-3.723-30.352-3.723c-9.254,0-15.911,1.015-17.716,1.242
  c-3.159,0.451,5.981,0.676,17.716,2.708c5.189,1.015,10.945,2.256,16.36,4.061c4.513,1.581,9.252,3.949,13.992,6.884
  c4.964,3.046,10.042,6.657,14.782,10.606c9.025,7.447,17.151,15.799,22.566,22.68c1.242,1.581,2.483,3.157,3.61,4.852
  c12.974,19.631,21.665,49.649,21.665,49.649l7.335-3.386l10.157-4.627c0.673-0.339-0.568,0.454-9.254-21.89
  C251.964,255.18,251.625,254.277,251.286,253.375z M278.706,244.574c-5.416-15.572-13.992-31.594-27.42-44.909
  c-7.22-7.108-15.911-13.426-26.288-18.617c-0.903-0.451-1.81-0.791-2.712-1.242c-8.911-4.061-17.941-6.317-26.176-7.674
  c-5.303-0.788-10.27-1.127-14.782-1.241c-11.284-0.225-19.521,1.129-21.666,1.692c-3.383,0.905,8.125,1.242,21.666,3.949
  c4.061,0.905,8.35,2.032,12.525,3.386c0.676,0.227,1.466,0.563,2.256,0.903c8.462,3.273,17.714,9.366,26.176,16.362
  c9.14,7.447,17.492,15.909,22.907,22.902c2.145,2.598,4.174,5.645,6.093,8.916c11.623,19.411,19.068,45.475,19.068,45.475
  l8.577-3.839l9.025-4.059c0.678-0.229-0.563,0.563-9.025-21.441L278.706,244.574z"/>
</svg>