<svg version="1.1" xmlns="http://www.w3.org/2000/svg" xmlns:xlink="http://www.w3.org/1999/xlink" viewBox="0 0 395 104">
    <g>
        <path d="M5.832,93.384v-18H0.36v-1.728h12.672v1.728h-5.4v18H5.832L5.832,93.384z M36.072,93.384V73.656h9.72v1.728h-7.92v6.12
            h7.92v1.728h-7.92v8.496h7.92v1.656H36.072L36.072,93.384z M37.008,71.712l2.88-4.68h1.944l2.88,4.68h-1.224l-2.592-3.384
            l-2.664,3.384H37.008L37.008,71.712z M69.408,93.384h-1.944l6.048-10.368l-5.472-9.359h2.016l4.464,7.848l4.464-7.848h1.944
            l-5.4,9.287l5.976,10.44h-2.016l-5.04-8.712L69.408,93.384L69.408,93.384z M107.136,93.384v-18h-5.4v-1.728h12.672v1.728h-5.472
            v18H107.136L107.136,93.384z M137.376,93.384V73.656h1.8v19.728H137.376L137.376,93.384z M164.16,93.384V73.656h1.8v18.071h6.696
            v1.656H164.16z" />
        <path d="M30.528,36.864c0,5.904,2.016,10.871,5.904,14.831c3.888,3.961,8.712,5.977,14.4,5.977c5.616,0,10.44-2.016,14.4-5.977
            c3.96-4.031,5.904-8.927,5.904-14.831s-1.944-10.872-5.904-14.832C61.344,18,56.52,16.057,50.904,16.057
            c-5.688,0-10.512,1.943-14.472,5.976C32.544,25.992,30.528,30.96,30.528,36.864L30.528,36.864z M26.28,36.864
            c0-3.384,0.72-6.696,2.016-9.864c1.368-3.168,3.24-5.903,5.688-8.279c2.232-2.16,4.824-3.816,7.704-4.969
            c2.808-1.152,5.904-1.729,9.216-1.729c3.24,0,6.264,0.576,9.072,1.729c2.88,1.08,5.4,2.736,7.704,4.969
            c2.52,2.376,4.392,5.111,5.688,8.207c1.368,3.096,2.016,6.408,2.016,9.937c0,3.384-0.72,6.696-2.088,9.936
            c-1.296,3.168-3.24,5.904-5.616,8.208c-2.232,2.232-4.752,3.889-7.632,5.04c-2.808,1.08-5.904,1.656-9.144,1.656
            c-3.312,0-6.408-0.576-9.216-1.656c-2.88-1.151-5.472-2.808-7.704-5.04c-2.448-2.304-4.32-5.111-5.688-8.28
            C27,43.488,26.28,40.248,26.28,36.864z" />
        <path d="M115.704,57.527c-0.72,0.433-2.304,1.08-3.024,1.297
            c-0.792,0.216-4.104,1.367-4.824,1.584c-1.44,0.432-3.024,0.432-4.608,0.432c-2.88,0-5.616-0.432-8.208-1.224
            c-2.52-0.864-4.824-2.16-6.984-3.816c-2.952-2.304-5.256-5.184-6.912-8.64c-1.656-3.384-2.52-6.984-2.52-10.656
            c0-3.744,0.216-8.064,1.872-11.52c1.728-3.457,4.032-6.264,6.912-8.568c2.232-1.656,4.536-2.952,7.128-3.816
            c2.52-0.791,5.256-1.224,8.136-1.224c1.512,0,3.024,0.144,4.464,0.433c0.72,0.144,4.752,1.151,5.472,1.367
            c0.792,0.217,2.448,0.792,3.168,1.08v4.824c-0.72-0.504-1.512-0.937-2.232-1.296c-0.792-0.36-4.896-1.513-5.688-1.728
            c-1.656-0.505-3.456-0.721-5.328-0.721c-5.688,0-10.512,1.944-14.4,5.832c-3.96,3.889-5.256,9.504-5.256,15.336
            c0,5.761,1.944,10.656,5.832,14.544s8.712,5.832,14.4,5.832c1.728,0,3.312-0.216,4.968-0.648c0.792-0.216,4.176-1.439,4.968-1.728
            c0.864-0.36,1.8-0.72,2.736-1.151L115.704,57.527z" />
        <path d="M122.184,11.952l4.176-0.072v31.104c0,5.184,0.936,8.424,2.808,10.512
            c3.6,4.031,9.36,4.031,13.104,0c1.872-2.016,2.736-5.328,2.736-10.512V11.952h4.32v31.104c0,3.671-0.288,6.479-0.792,8.352
            c-0.576,1.944-1.512,3.527-2.736,4.896c-2.664,2.951-5.832,4.031-9.576,4.319c-3.816,0.36-7.992-1.439-10.584-4.319
            c-1.296-1.297-2.16-2.952-2.736-4.824c-0.504-1.8-0.792-4.681-0.792-8.424L122.184,11.952z" />
        <path d="M160.056,60.12h7.2c0,0,9-8.063,5.256-17.208
            c-3.744-9.144-13.608-11.231-12.888-18.792c0.36-3.24,1.584-4.824,2.952-6.264c1.872-1.944,4.176-2.376,6.552-2.521
            c4.104-0.216,8.28,3.096,8.28,2.664v-4.68c0,0-9.216-4.681-16.344,0.504c-7.128,5.256-5.904,13.104-4.968,15.624
            c0.936,2.592,7.128,8.352,10.224,11.736c3.168,3.312,2.448,8.712,0.648,11.808C165.168,56.16,160.056,60.12,160.056,60.12z" />
        <path d="M4.248,40.104V60.12H0l0.072-23.399v-1.225c0.144-3.385,0.792-6.624,2.232-9.792
            s3.456-5.832,5.904-8.136c2.304-2.088,4.896-3.672,7.848-4.752c1.944-0.72,4.032-1.152,6.192-1.368v4.032
            c-4.464,0.432-8.352,2.231-11.664,5.472c-4.032,3.888-6.12,8.783-6.336,14.616c0,0.144,0,0.216,0,0.359h18v4.248L4.248,40.104z" />
        <path d="M184.824,5.904c2.376,0,4.392,1.943,4.392,4.392s-2.016,4.392-4.392,4.392
            s-4.392-1.943-4.392-4.392S182.448,5.904,184.824,5.904L184.824,5.904z M184.824,6.912c-1.872,0-3.384,1.512-3.384,3.384
            s1.512,3.456,3.384,3.456s3.384-1.584,3.384-3.456S186.696,6.912,184.824,6.912z" />
        <path d="M182.952,7.92h2.88c0,0,0.504,0.072,0.792,0.504
            c0.432,0.648,0.288,2.016-0.576,2.16c0,0,0.216-0.072,0.504,0.576c0.215,0.72,0.432,1.512,0.432,1.512h-0.937
            c0,0-0.216-1.367-0.792-1.729c-0.072-0.071-0.144-0.144-0.288-0.144h-1.152v1.944h-0.864V7.92L182.952,7.92z M183.816,8.64v1.368
            h1.368c0,0,0.288,0,0.576-0.072c0.144-0.144,0.288-0.288,0.288-0.575c0-0.721-0.648-0.721-0.72-0.721H183.816z" />
        <path d="M255.528,0h1.08c0.72,2.592,5.184,16.848,11.52,24.84
    c5.04,6.408,15.336,15.624,23.761,18.504c8.208,2.809,19.151,3.024,17.063,3.456c-2.16,0.432-17.784,2.376-31.393-4.319
    c-13.68-6.624-21.096-18-24.912-29.017c-4.031-10.44-4.607-10.08-4.319-10.152L255.528,0L255.528,0z M262.584,0
    c0.647,1.439,1.728,3.889,3.24,7.92c3.888,11.016,10.943,23.112,24.624,29.664c13.752,6.48,28.656,3.889,30.672,3.601
    c2.088-0.288-7.776-0.577-15.984-3.385c-8.496-2.88-18.72-12.096-23.832-18.504c-4.248-5.399-7.632-13.68-9.647-19.296H262.584
    L262.584,0z M277.056,0c0.288,0.792,0.648,1.656,1.008,2.592c3.816,11.089,11.232,22.536,24.913,29.089
    c13.751,6.479,28.079,4.247,30.167,3.959c2.017-0.287-7.56-0.359-15.768-3.096c-8.496-2.88-18.72-12.168-23.832-18.576
    c-3.023-3.888-5.616-9.216-7.632-13.968H277.056L277.056,0z M292.177,0c4.031,10.152,11.304,20.16,23.759,26.136
    c13.753,6.48,27.937,4.176,29.953,3.888c2.088-0.288-7.345-0.288-15.553-3.023c-8.496-2.88-18.72-12.168-23.832-18.576
    c-1.872-2.376-3.6-5.4-5.111-8.424H292.177L292.177,0z M394.92,35.208V45.36c-5.472-5.616-13.176-11.736-19.8-13.968
    c-8.208-2.809-17.353-3.168-15.265-3.457c2.017-0.288,15.912-2.231,29.665,4.32C391.393,33.12,393.192,34.128,394.92,35.208
    L394.92,35.208z M394.92,51.912v18c-2.016-4.969-4.752-10.656-7.992-14.688c-5.039-6.408-15.335-15.697-23.76-18.577
    c-8.208-2.735-17.856-2.808-15.769-3.096c2.017-0.287,16.416-2.52,30.097,3.96C385.056,41.111,390.744,46.225,394.92,51.912
    L394.92,51.912z M348.912,103.248l7.344-3.313c0.36-0.144-0.216,0.217-4.247-10.224c-3.816-11.017-11.377-22.176-24.912-29.017
    c-13.537-6.839-27.865-4.752-30.097-4.031c-2.304,0.792,7.56,0.433,15.696,3.168c8.496,2.88,18.792,12.096,23.832,18.576
    c6.336,7.992,10.871,22.535,11.52,24.84H348.912L348.912,103.248z M342.072,103.248H333c-2.016-5.544-5.399-13.896-9.72-19.296
    c-5.04-6.479-15.336-15.696-23.76-18.576c-8.209-2.736-17.856-2.808-15.769-3.384c2.016-0.504,16.56-2.808,30.24,3.96
    c13.68,6.695,20.952,18.288,24.768,29.304C340.344,99.432,341.425,101.809,342.072,103.248L342.072,103.248z M327.601,103.248
    h-8.856c-1.944-4.752-4.608-10.151-7.704-14.04C306,82.8,295.776,73.584,287.28,70.704c-8.208-2.808-17.855-2.88-15.768-3.168
    s16.415-2.521,30.096,3.96c13.752,6.552,21.096,18,24.984,29.088C326.952,101.592,327.312,102.456,327.601,103.248L327.601,103.248z
     M312.48,103.248h-9.217c-1.512-3.023-3.24-6.048-5.184-8.496c-5.04-6.408-15.336-15.624-23.76-18.504
    c-8.208-2.809-17.856-2.88-15.769-3.168c2.017-0.288,16.416-2.52,30.096,3.96C301.177,83.016,308.448,93.097,312.48,103.248
    L312.48,103.248z M235.872,9.288c-0.288,0.144,0.288-0.216,4.248,10.224c3.889,11.016,11.231,22.536,24.912,29.016
    c13.752,6.48,28.08,4.32,30.168,4.033c2.016-0.289-7.561-0.36-15.768-3.168c-8.497-2.881-18.721-12.097-23.832-18.576
    c-6.912-8.784-11.592-25.2-11.592-25.2L235.872,9.288L235.872,9.288z M222.912,14.832c-0.36,0.145,0.216-0.216,4.248,10.225
    c3.816,11.016,11.232,22.535,24.912,29.016c13.752,6.479,28.08,4.32,30.168,4.031c2.016-0.287-7.632-0.359-15.768-3.168
    c-8.496-2.879-18.792-12.096-23.833-18.575c-6.912-8.784-11.663-25.2-11.663-25.2L222.912,14.832L222.912,14.832z M210.385,20.88
    c-0.288,0.144,0.287-0.216,4.319,10.224c3.816,11.017,11.16,22.536,24.912,29.017c13.68,6.479,28.08,4.248,30.096,3.96
    c2.088-0.216-7.56-0.359-15.768-3.096c-8.424-2.881-18.721-12.168-23.76-18.576c-6.984-8.784-11.664-25.2-11.664-25.2L210.385,20.88
    L210.385,20.88z M197.929,26.424c-0.289,0.145,0.287-0.216,4.248,10.224c3.887,11.017,11.231,22.537,24.911,29.017
    c13.752,6.479,28.08,4.248,30.168,3.96c2.017-0.288-7.56-0.359-15.768-3.097c-8.496-2.88-18.721-12.167-23.832-18.575
    c-6.912-8.784-11.593-25.2-11.593-25.2L197.929,26.424L197.929,26.424z M186.048,31.752l7.992-3.672c0,0,4.752,16.416,11.664,25.2
    c5.04,6.407,15.336,15.624,23.832,18.504c8.136,2.808,17.784,2.88,15.695,3.168c-2.016,0.288-16.416,2.521-30.096-3.96
    c-13.68-6.553-21.096-18-24.912-29.088C186.264,31.536,185.688,31.896,186.048,31.752L186.048,31.752z M368.784,93.889
    c0.288-0.145-0.288,0.215-4.32-10.225c-3.816-11.017-11.16-22.536-24.912-29.017c-4.824-2.304-9.792-3.743-14.472-4.319
    c-8.567-1.152-15.769,0.072-17.063,0.288c-2.089,0.288,9,0.432,17.208,3.168c8.423,2.88,18.72,12.168,23.76,18.576
    c6.983,8.783,11.663,25.2,11.663,25.2L368.784,93.889L368.784,93.889z M381.744,88.344l-8.136,3.672c0,0-4.681-16.416-11.592-25.199
    c-5.112-6.408-15.336-15.696-23.832-18.576c-8.208-2.736-18.36-2.88-16.776-3.313c1.584-0.432,17.424-2.304,31.176,4.176
    c13.68,6.48,21.024,18,24.912,29.088C381.456,88.561,382.032,88.2,381.744,88.344L381.744,88.344z M394.2,82.296l-8.064,3.672
    c0,0-4.751-16.416-11.663-25.199c-5.04-6.408-15.337-15.48-23.833-18.36c-8.136-2.809-17.784-3.024-15.768-3.312
    c2.088-0.288,16.416-2.521,30.168,3.96c13.68,6.551,21.096,18,24.912,29.087C393.984,82.512,394.56,82.152,394.2,82.296z" />
    </g>
</svg>
