<svg xmlns="http://www.w3.org/2000/svg" viewBox="0 0 211 212" width="211" height="212">
	<style>
		tspan { white-space:pre }
		.shp0 { fill: #5592aa } 
	</style>
	<path id="&lt;Path&gt;" fill-rule="evenodd" class="shp0" d="M105.67 0.96C163.77 0.96 210.88 48.06 210.88 106.17C210.88 164.28 163.77 211.38 105.67 211.38C47.56 211.38 0.46 164.28 0.46 106.17C0.46 48.06 47.56 0.96 105.67 0.96ZM127.37 44.08C107.62 44.06 87.87 44.06 68.12 44.09C66.97 44.09 65.8 44.19 64.68 44.45C58.58 45.88 54.78 50.85 54.78 57.37C54.77 84.63 54.78 111.89 54.78 139.15C54.78 139.44 54.78 139.73 54.79 140.02C54.98 146.09 59.2 151.05 65.2 152.11C66.94 152.42 68.73 152.37 70.71 152.5C70.71 153.79 70.54 155.02 70.76 156.18C71.11 158.03 71.42 159.99 72.29 161.62C74.78 166.25 78.92 168.27 84.11 168.27L143.11 168.27C143.61 168.27 144.11 168.25 144.61 168.22C151.22 167.79 156.52 162.43 156.53 155.95C156.57 128.16 156.56 100.36 156.53 72.56C156.53 66.6 152.05 61.3 146.17 60.24C144.43 59.93 142.62 59.98 140.72 59.85C140.7 59.34 140.68 58.81 140.65 58.29C140.58 56.97 140.66 55.61 140.39 54.33C139.08 48.03 134.06 44.08 127.38 44.08L127.37 44.08ZM127.32 50.93C131.77 50.94 134.04 53.22 134.04 57.71L134.04 138.75C134.04 140.4 133.85 141.98 132.77 143.33C131.41 145.03 129.58 145.59 127.47 145.58C113.71 145.57 99.95 145.58 86.19 145.58C80.29 145.58 74.37 145.58 68.47 145.57C64.29 145.57 61.77 143.07 61.77 138.93C61.76 111.83 61.76 84.73 61.77 57.64C61.77 53.26 64.09 50.94 68.45 50.94C88.08 50.93 107.69 50.93 127.32 50.93L127.32 50.93ZM74.09 60.17C71.88 60.18 70.5 61.53 70.5 63.75C70.47 71.97 70.47 80.19 70.5 88.41C70.5 90.73 71.92 92.07 74.28 92.07C80.98 92.08 87.67 92.08 94.37 92.07C96.87 92.07 98.17 90.76 98.17 88.21C98.18 84.19 98.17 80.16 98.17 76.14C98.17 71.99 98.18 67.84 98.17 63.69C98.16 61.54 96.84 60.18 94.68 60.17C87.81 60.15 80.95 60.15 74.09 60.17ZM140.32 66.61L140.32 66.61C140.32 66.61 140.32 66.61 140.32 66.61L140.32 66.61ZM140.32 66.61C141.95 66.73 143.37 66.72 144.75 66.94C147.2 67.34 149.09 69.52 149.32 72.03C149.38 72.65 149.38 73.27 149.38 73.89L149.38 153.7C149.38 154.52 149.55 155.35 149.46 156.16C149.17 158.79 147.15 160.79 144.51 161.15C143.98 161.22 143.42 161.26 142.89 161.26C123.26 161.26 103.63 161.27 84 161.26C80.61 161.26 78.27 159.8 77.63 157.01C77.28 155.51 77.35 153.92 77.22 152.18L127.23 152.18C133.98 152.18 138.98 148.04 140.18 141.41C140.32 140.65 140.31 139.85 140.31 139.06C140.32 115.53 140.32 92 140.32 68.47L140.32 66.61ZM91.31 67.03C91.34 67.34 91.39 67.62 91.39 67.9C91.39 73.33 91.39 78.76 91.4 84.2C91.4 84.83 91.4 85.33 90.52 85.32C86.33 85.29 82.13 85.3 77.94 85.29C77.78 85.29 77.61 85.21 77.4 85.15L77.4 67.03L91.31 67.03ZM108.29 73.51C107.77 73.51 107.25 73.54 106.73 73.6C104.67 73.85 103.36 75.32 103.47 77.14C103.59 79.03 105.1 80.35 107.2 80.37C109.52 80.38 111.85 80.37 114.17 80.37C116.62 80.37 119.07 80.4 121.52 80.36C123.37 80.33 124.74 79.06 124.9 77.36C125.07 75.49 124 74.01 122.17 73.66C121.6 73.56 121.01 73.52 120.44 73.51C116.91 73.5 113.38 73.5 109.85 73.51C109.33 73.51 108.81 73.5 108.29 73.51L108.29 73.51ZM114.21 91.41C111.79 91.41 109.36 91.44 106.93 91.49C104.83 91.53 103.4 93.13 103.46 94.98C103.53 96.91 105.09 98.28 107.25 98.29C109.58 98.3 111.89 98.3 114.22 98.3C116.54 98.3 118.88 98.31 121.21 98.29C123.36 98.28 124.83 97 124.92 95.1C125.02 93.07 123.73 91.53 121.5 91.49C119.07 91.44 116.64 91.41 114.21 91.41ZM75.34 109.22C74.72 109.22 74.08 109.22 73.47 109.29C72.16 109.45 71.25 110.18 70.76 111.39C69.83 113.72 71.48 116 74.13 116C81.95 116.02 89.76 116.01 97.57 116.01C105.47 116.01 113.37 116.02 121.27 116C123.26 116 124.73 114.6 124.8 112.73C124.87 110.91 123.44 109.42 121.46 109.27C120.96 109.23 120.46 109.22 119.97 109.22L75.34 109.22L75.34 109.22ZM75.04 126.96C74.54 126.96 74.04 126.95 73.54 127.01C71.88 127.22 70.63 128.52 70.51 130.15C70.4 131.65 71.4 133.18 72.85 133.58C73.44 133.74 74.09 133.75 74.71 133.75C82.36 133.76 90 133.75 97.65 133.75C105.3 133.75 112.96 133.76 120.61 133.75C121.07 133.75 121.52 133.76 121.97 133.71C123.5 133.54 124.69 132.38 124.88 130.91C125.1 129.23 124.32 127.75 122.77 127.26C122.04 127.02 121.22 126.97 120.45 126.97C105.31 126.96 90.18 126.96 75.04 126.96L75.04 126.96Z" />
</svg>