<?xml version="1.0" encoding="UTF-8"?>
<!DOCTYPE svg PUBLIC "-//W3C//DTD SVG 1.1//EN" "http://www.w3.org/Graphics/SVG/1.1/DTD/svg11.dtd">
<!-- Creator: CorelDRAW 2019 (64 Bit) -->
<svg xmlns="http://www.w3.org/2000/svg" xml:space="preserve" width="95px" height="95px" version="1.1" style="shape-rendering:geometricPrecision; text-rendering:geometricPrecision; image-rendering:optimizeQuality; fill-rule:evenodd; clip-rule:evenodd"
viewBox="0 0 91.44 91.88"
 xmlns:xlink="http://www.w3.org/1999/xlink"
 xmlns:xodm="http://www.corel.com/coreldraw/odm/2003">
 <defs>
  <style type="text/css">
   <![CDATA[
    .str0 {stroke:#373435;stroke-width:2.28;stroke-miterlimit:22.9256}
    .str1 {stroke:#373435;stroke-width:2.01;stroke-miterlimit:22.9256}
    .fil2 {fill:#373435}
    .fil0 {fill:black}
    .fil1 {fill:white}
    .fil4 {fill:#373435;fill-rule:nonzero}
    .fil3 {fill:black;fill-rule:nonzero}
   ]]>
  </style>
 </defs>
 <g id="Camada_x0020_1">
  <metadata id="CorelCorpID_0Corel-Layer"/>
  <g id="_1721488254624">
   <path id="Layer" class="fil0" d="M13.01 16.24c0.17,-0.39 0.4,-0.75 0.71,-1.05 0.3,-0.3 0.65,-0.54 1.05,-0.7 0.39,-0.17 0.81,-0.25 1.24,-0.25l16.19 0c0.43,0 0.85,0.08 1.25,0.25 0.39,0.16 0.75,0.4 1.05,0.7 0.3,0.3 0.53,0.66 0.7,1.05 0.16,0.39 0.25,0.81 0.25,1.24l0 16.2c0,0.42 -0.09,0.84 -0.25,1.24 -0.17,0.39 -0.4,0.75 -0.7,1.05 -0.3,0.3 -0.66,0.54 -1.05,0.7 -0.4,0.16 -0.82,0.25 -1.25,0.25l-16.19 0c-0.43,0 -0.85,-0.09 -1.24,-0.25 -0.4,-0.16 -0.75,-0.4 -1.05,-0.7 -0.31,-0.3 -0.54,-0.66 -0.71,-1.05 -0.16,-0.4 -0.24,-0.82 -0.24,-1.24l0 -16.2c0,-0.43 0.08,-0.85 0.24,-1.24zm6.24 14.2l9.71 0 0 -9.72 -9.71 0 0 9.72z"/>
   <path id="Layer_x0020_copy_x0020_3" class="fil1" d="M15.79 18.58c0.12,-0.3 0.3,-0.57 0.52,-0.79 0.23,-0.23 0.5,-0.41 0.79,-0.53 0.3,-0.12 0.62,-0.18 0.93,-0.18l12.15 0c0.32,0 0.64,0.06 0.93,0.18 0.3,0.12 0.57,0.3 0.79,0.53 0.23,0.22 0.41,0.49 0.53,0.79 0.12,0.29 0.18,0.61 0.18,0.93l0 12.15c0,0.32 -0.06,0.63 -0.18,0.93 -0.12,0.29 -0.3,0.56 -0.53,0.78 -0.22,0.23 -0.49,0.41 -0.79,0.53 -0.29,0.12 -0.61,0.19 -0.93,0.19l-12.15 0c-0.31,0 -0.63,-0.07 -0.93,-0.19 -0.29,-0.12 -0.56,-0.3 -0.79,-0.53 -0.22,-0.22 -0.4,-0.49 -0.52,-0.78 -0.12,-0.3 -0.19,-0.61 -0.19,-0.93l0 -12.15c0,-0.32 0.07,-0.64 0.19,-0.93zm4.67 10.65l7.29 0 0 -7.29 -7.29 0 0 7.29z"/>
   <path id="Layer_0" class="fil0" d="M56.88 36.67c-0.39,-0.16 -0.75,-0.4 -1.05,-0.7 -0.3,-0.3 -0.54,-0.66 -0.7,-1.05 -0.16,-0.4 -0.25,-0.82 -0.25,-1.24l0 -16.2c0,-0.43 0.09,-0.85 0.25,-1.24 0.16,-0.39 0.4,-0.75 0.7,-1.05 0.3,-0.3 0.66,-0.54 1.05,-0.7 0.4,-0.17 0.82,-0.25 1.24,-0.25l16.2 0c0.43,0 0.85,0.08 1.24,0.25 0.39,0.16 0.75,0.4 1.05,0.7 0.3,0.3 0.54,0.66 0.7,1.05 0.17,0.39 0.25,0.81 0.25,1.24l0 16.2c0,0.42 -0.08,0.84 -0.25,1.24 -0.16,0.39 -0.4,0.75 -0.7,1.05 -0.3,0.3 -0.66,0.54 -1.05,0.7 -0.39,0.16 -0.81,0.25 -1.24,0.25l-16.2 0c-0.42,0 -0.84,-0.09 -1.24,-0.25zm4.48 -6.23l9.72 0 0 -9.72 -9.72 0 0 9.72z"/>
   <path id="Layer_x0020_copy_x0020_2" class="fil1" d="M59.22 33.9c-0.3,-0.12 -0.57,-0.3 -0.79,-0.53 -0.23,-0.22 -0.41,-0.49 -0.53,-0.78 -0.12,-0.3 -0.18,-0.61 -0.18,-0.93l0 -12.15c0,-0.32 0.06,-0.64 0.18,-0.93 0.12,-0.3 0.3,-0.57 0.53,-0.79 0.22,-0.23 0.49,-0.41 0.79,-0.53 0.29,-0.12 0.61,-0.18 0.92,-0.18l12.15 0c0.32,0 0.64,0.06 0.93,0.18 0.3,0.12 0.57,0.3 0.79,0.53 0.23,0.22 0.41,0.49 0.53,0.79 0.12,0.29 0.18,0.61 0.18,0.93l0 12.15c0,0.32 -0.06,0.63 -0.18,0.93 -0.12,0.29 -0.3,0.56 -0.53,0.78 -0.22,0.23 -0.49,0.41 -0.79,0.53 -0.29,0.12 -0.61,0.19 -0.93,0.19l-12.15 0c-0.31,0 -0.63,-0.07 -0.92,-0.19zm3.35 -4.67l7.29 0 0 -7.29 -7.29 0 0 7.29z"/>
   <path id="Layer_x0020_copy_x0020_7" class="fil0" d="M62.48 30.02c-0.16,-0.06 -0.3,-0.16 -0.42,-0.28 -0.12,-0.12 -0.22,-0.26 -0.28,-0.42 -0.07,-0.16 -0.1,-0.32 -0.1,-0.49l0 -6.48c0,-0.17 0.03,-0.34 0.1,-0.5 0.06,-0.16 0.16,-0.3 0.28,-0.42 0.12,-0.12 0.26,-0.22 0.42,-0.28 0.16,-0.07 0.32,-0.1 0.49,-0.1l6.48 0c0.17,0 0.34,0.03 0.5,0.1 0.16,0.06 0.3,0.16 0.42,0.28 0.12,0.12 0.22,0.26 0.28,0.42 0.07,0.16 0.1,0.33 0.1,0.5l0 6.48c0,0.17 -0.03,0.33 -0.1,0.49 -0.06,0.16 -0.16,0.3 -0.28,0.42 -0.12,0.12 -0.26,0.22 -0.42,0.28 -0.16,0.07 -0.33,0.1 -0.5,0.1l-6.48 0c-0.17,0 -0.33,-0.03 -0.49,-0.1zm1.79 -2.49l3.89 0 0 -3.89 -3.89 0 0 3.89z"/>
   <path id="Layer_1" class="fil0" d="M33.45 56.6c0.39,0.17 0.75,0.4 1.05,0.7 0.3,0.31 0.53,0.66 0.7,1.05 0.16,0.4 0.25,0.82 0.25,1.25l0 16.19c0,0.43 -0.09,0.85 -0.25,1.24 -0.17,0.4 -0.4,0.75 -0.7,1.06 -0.3,0.3 -0.66,0.53 -1.05,0.7 -0.4,0.16 -0.82,0.24 -1.25,0.24l-16.19 0c-0.43,0 -0.85,-0.08 -1.24,-0.24 -0.4,-0.17 -0.75,-0.4 -1.05,-0.7 -0.31,-0.31 -0.54,-0.66 -0.71,-1.06 -0.16,-0.39 -0.24,-0.81 -0.24,-1.24l0 -16.19c0,-0.43 0.08,-0.85 0.24,-1.25 0.17,-0.39 0.4,-0.74 0.71,-1.05 0.3,-0.3 0.65,-0.53 1.05,-0.7 0.39,-0.16 0.81,-0.24 1.24,-0.24l16.19 0c0.43,0 0.85,0.08 1.25,0.24zm-4.49 6.24l-9.71 0 0 9.72 9.71 0 0 -9.72z"/>
   <path id="Layer_x0020_copy_x0020_4" class="fil1" d="M31.11 59.37c0.3,0.12 0.57,0.3 0.79,0.53 0.23,0.22 0.41,0.49 0.53,0.79 0.12,0.29 0.18,0.61 0.18,0.93l0 12.15c0,0.31 -0.06,0.63 -0.18,0.93 -0.12,0.29 -0.3,0.56 -0.53,0.79 -0.22,0.22 -0.49,0.4 -0.79,0.52 -0.29,0.12 -0.61,0.19 -0.93,0.19l-12.15 0c-0.31,0 -0.63,-0.07 -0.93,-0.19 -0.29,-0.12 -0.56,-0.3 -0.79,-0.52 -0.22,-0.23 -0.4,-0.5 -0.52,-0.79 -0.12,-0.3 -0.19,-0.62 -0.19,-0.93l0 -12.15c0,-0.32 0.07,-0.64 0.19,-0.93 0.12,-0.3 0.3,-0.57 0.52,-0.79 0.23,-0.23 0.5,-0.41 0.79,-0.53 0.3,-0.12 0.62,-0.18 0.93,-0.18l12.15 0c0.32,0 0.64,0.06 0.93,0.18zm-3.36 4.68l-7.29 0 0 7.29 7.29 0 0 -7.29z"/>
   <path id="Layer_x0020_copy_x0020_6" class="fil2 str0" d="M27.85 63.25c0.16,0.07 0.3,0.16 0.42,0.28 0.12,0.12 0.22,0.26 0.28,0.42 0.07,0.16 0.1,0.33 0.1,0.5l0 6.48c0,0.17 -0.03,0.34 -0.1,0.49 -0.06,0.16 -0.16,0.3 -0.28,0.42 -0.12,0.12 -0.26,0.22 -0.42,0.28 -0.16,0.07 -0.33,0.1 -0.5,0.1l-6.48 0c-0.17,0 -0.33,-0.03 -0.49,-0.1 -0.16,-0.06 -0.3,-0.16 -0.42,-0.28 -0.12,-0.12 -0.22,-0.26 -0.28,-0.42 -0.07,-0.15 -0.1,-0.32 -0.1,-0.49l0 -6.48c0,-0.17 0.03,-0.34 0.1,-0.5 0.06,-0.16 0.16,-0.3 0.28,-0.42 0.12,-0.12 0.26,-0.21 0.42,-0.28 0.16,-0.07 0.32,-0.1 0.49,-0.1l6.48 0c0.17,0 0.34,0.03 0.5,0.1zm-1.79 2.49l-3.89 0 0 3.89 3.89 0 0 -3.89z"/>
   <path id="Layer_2" class="fil0" d="M56.88 78.79c-0.39,-0.17 -0.75,-0.4 -1.05,-0.7 -0.3,-0.31 -0.54,-0.66 -0.7,-1.06 -0.16,-0.39 -0.25,-0.81 -0.25,-1.24l0 -16.19c0,-0.43 0.09,-0.85 0.25,-1.25 0.16,-0.39 0.4,-0.74 0.7,-1.05 0.3,-0.3 0.66,-0.53 1.05,-0.7 0.4,-0.16 0.82,-0.24 1.24,-0.24l16.2 0c0.43,0 0.85,0.08 1.24,0.24 0.39,0.17 0.75,0.4 1.05,0.7 0.3,0.31 0.54,0.66 0.7,1.05 0.17,0.4 0.25,0.82 0.25,1.25l0 16.19c0,0.43 -0.08,0.85 -0.25,1.24 -0.16,0.4 -0.4,0.75 -0.7,1.06 -0.3,0.3 -0.66,0.53 -1.05,0.7 -0.39,0.16 -0.81,0.24 -1.24,0.24l-16.2 0c-0.42,0 -0.84,-0.08 -1.24,-0.24zm4.48 -6.23l9.72 0 0 -9.72 -9.72 0 0 9.72z"/>
   <path id="Layer_x0020_copy_x0020_5" class="fil1" d="M59.22 76.01c-0.3,-0.12 -0.57,-0.3 -0.79,-0.52 -0.23,-0.23 -0.41,-0.5 -0.53,-0.79 -0.12,-0.3 -0.18,-0.62 -0.18,-0.93l0 -12.15c0,-0.32 0.06,-0.64 0.18,-0.93 0.12,-0.3 0.3,-0.57 0.53,-0.79 0.22,-0.23 0.49,-0.41 0.79,-0.53 0.29,-0.12 0.61,-0.18 0.92,-0.18l12.15 0c0.32,0 0.64,0.06 0.93,0.18 0.3,0.12 0.57,0.3 0.79,0.53 0.23,0.22 0.41,0.49 0.53,0.79 0.12,0.29 0.18,0.61 0.18,0.93l0 12.15c0,0.31 -0.06,0.63 -0.18,0.93 -0.12,0.29 -0.3,0.56 -0.53,0.79 -0.22,0.22 -0.49,0.4 -0.79,0.52 -0.29,0.12 -0.61,0.19 -0.93,0.19l-12.15 0c-0.31,0 -0.63,-0.07 -0.92,-0.19zm3.35 -4.67l7.29 0 0 -7.29 -7.29 0 0 7.29z"/>
   <path id="Layer_3" class="fil3" d="M12.85 48.26l32.32 0c0.21,0 0.42,-0.04 0.62,-0.12 0.19,-0.09 0.37,-0.21 0.52,-0.36 0.15,-0.15 0.27,-0.32 0.35,-0.52 0.09,-0.2 0.13,-0.41 0.13,-0.62l0 -31.08 -3.24 0 0 29.46 -30.7 0 0 3.24z"/>
   <polygon id="Layer_4" class="fil3" points="43.54,56.36 46.78,56.36 46.78,79.03 43.54,79.03 "/>
   <polygon id="Layer_5" class="fil3" points="54.88,45.02 64.6,45.02 64.6,48.26 54.88,48.26 "/>
   <polygon id="Layer_6" class="fil3" points="71.08,45.02 77.56,45.02 77.56,48.26 71.08,48.26 "/>
  </g>
  <g id="_1721488205632">
   <g>
    <g>
     <path class="fil4 str1" d="M2.69 21.31c0,-4.73 0,-9.45 0,-14.17 0,-1.33 0.22,-2.58 1.12,-3.62 1.01,-1.16 2.39,-1.61 3.88,-1.61 2.57,0 5.14,0 7.71,0 2.4,0 4.8,0 7.2,0 0.57,0 0.57,-0.89 0,-0.89 -4.92,0 -9.83,0 -14.74,0 -1.27,0 -2.47,0.19 -3.56,0.9 -1.58,1.04 -2.47,2.78 -2.51,4.65 -0.04,2.34 0,4.67 0,7 0,2.58 0,5.16 0,7.74 0,0.57 0.9,0.57 0.9,0z"/>
    </g>
   </g>
  </g>
  <g id="_1721488206912">
   <g>
    <g>
     <path class="fil4 str1" d="M21.29 89.97c-4.72,0 -9.45,0 -14.17,0 -1.32,0 -2.57,-0.22 -3.62,-1.12 -1.16,-1.01 -1.6,-2.39 -1.6,-3.89 0,-2.57 0,-5.14 0,-7.71 0,-2.4 0,-4.79 0,-7.19 0,-0.57 -0.9,-0.58 -0.9,0 0,4.91 0,9.83 0,14.74 0,1.26 0.19,2.47 0.9,3.55 1.04,1.58 2.78,2.48 4.66,2.51 2.33,0.04 4.66,0 7,0 2.58,0 5.15,0 7.73,0 0.58,0 0.58,-0.89 0,-0.89z"/>
    </g>
   </g>
  </g>
  <g id="_1721488216320">
   <g>
    <g>
     <path class="fil4 str1" d="M89.52 69.92c0,4.72 0,9.45 0,14.17 0,1.32 -0.22,2.57 -1.12,3.61 -1.01,1.17 -2.39,1.61 -3.88,1.61 -2.57,0 -5.14,0 -7.71,0 -2.4,0 -4.8,0 -7.2,0 -0.57,0 -0.57,0.9 0,0.9 4.92,0 9.83,0 14.74,0 1.27,0 2.47,-0.19 3.56,-0.9 1.58,-1.04 2.47,-2.78 2.51,-4.66 0.04,-2.33 0,-4.67 0,-7 0,-2.58 0,-5.15 0,-7.73 0,-0.58 -0.9,-0.58 -0.9,0z"/>
    </g>
   </g>
  </g>
  <g id="_1721488221952">
   <g>
    <g>
     <path class="fil4 str1" d="M69.87 1.91c4.72,0 9.45,0 14.17,0 1.32,0 2.58,0.22 3.62,1.13 1.16,1 1.61,2.39 1.61,3.88 0,2.57 0,5.14 0,7.71 0,2.4 0,4.8 0,7.19 0,0.58 0.89,0.58 0.89,0 0,-4.91 0,-9.82 0,-14.74 0,-1.26 -0.19,-2.47 -0.9,-3.55 -1.04,-1.58 -2.78,-2.48 -4.66,-2.51 -2.33,-0.04 -4.66,0 -7,0 -2.57,0 -5.15,0 -7.73,0 -0.57,0 -0.57,0.89 0,0.89z"/>
    </g>
   </g>
  </g>
 </g>
</svg>
